<?xml version="1.0"?>
<!-- Generated by SVGo -->
<svg width="210" height="297"
     xmlns="http://www.w3.org/2000/svg"
     xmlns:xlink="http://www.w3.org/1999/xlink">
<rect x="0" y="0" width="210" height="297" style="fill:none;stroke:none" />
<line x1="181" y1="76" x2="187" y2="72" style="stroke:black;stroke-width:1" />
<line x1="170" y1="85" x2="181" y2="76" style="stroke:black;stroke-width:1" />
<line x1="155" y1="96" x2="170" y2="85" style="stroke:black;stroke-width:1" />
<line x1="137" y1="109" x2="155" y2="96" style="stroke:black;stroke-width:1" />
<line x1="120" y1="122" x2="137" y2="109" style="stroke:black;stroke-width:1" />
<line x1="101" y1="136" x2="120" y2="122" style="stroke:black;stroke-width:1" />
<line x1="83" y1="150" x2="101" y2="136" style="stroke:black;stroke-width:1" />
<line x1="64" y1="164" x2="83" y2="150" style="stroke:black;stroke-width:1" />
<line x1="44" y1="179" x2="64" y2="164" style="stroke:black;stroke-width:1" />
<line x1="29" y1="190" x2="44" y2="179" style="stroke:black;stroke-width:1" />
<line x1="16" y1="200" x2="29" y2="190" style="stroke:black;stroke-width:1" />
<line x1="10" y1="205" x2="16" y2="200" style="stroke:black;stroke-width:1" />
<line x1="25" y1="190" x2="24" y2="192" style="stroke:black;stroke-width:1" />
<line x1="21" y1="195" x2="24" y2="192" style="stroke:black;stroke-width:1" />
<line x1="25" y1="190" x2="38" y2="210" style="stroke:black;stroke-width:1" />
<line x1="21" y1="195" x2="20" y2="197" style="stroke:black;stroke-width:1" />
<line x1="19" y1="194" x2="21" y2="195" style="stroke:black;stroke-width:1" />
<line x1="20" y1="192" x2="19" y2="194" style="stroke:black;stroke-width:1" />
<line x1="21" y1="195" x2="20" y2="192" style="stroke:black;stroke-width:1" />
<line x1="38" y1="212" x2="38" y2="210" style="stroke:black;stroke-width:1" />
<line x1="24" y1="192" x2="38" y2="212" style="stroke:black;stroke-width:1" />
<line x1="22" y1="190" x2="24" y2="192" style="stroke:black;stroke-width:1" />
<line x1="25" y1="190" x2="22" y2="190" style="stroke:black;stroke-width:1" />
<line x1="34" y1="214" x2="31" y2="214" style="stroke:black;stroke-width:1" />
<line x1="33" y1="216" x2="34" y2="214" style="stroke:black;stroke-width:1" />
<line x1="36" y1="216" x2="33" y2="216" style="stroke:black;stroke-width:1" />
<line x1="34" y1="214" x2="36" y2="216" style="stroke:black;stroke-width:1" />
<line x1="38" y1="212" x2="34" y2="214" style="stroke:black;stroke-width:1" />
<line x1="38" y1="215" x2="38" y2="212" style="stroke:black;stroke-width:1" />
<line x1="39" y1="213" x2="38" y2="215" style="stroke:black;stroke-width:1" />
<line x1="38" y1="212" x2="39" y2="213" style="stroke:black;stroke-width:1" />
<line x1="34" y1="214" x2="38" y2="212" style="stroke:black;stroke-width:1" />
<line x1="21" y1="195" x2="34" y2="214" style="stroke:black;stroke-width:1" />
<line x1="39" y1="213" x2="38" y2="210" style="stroke:black;stroke-width:1" />
<line x1="38" y1="215" x2="39" y2="213" style="stroke:black;stroke-width:1" />
<line x1="36" y1="216" x2="38" y2="215" style="stroke:black;stroke-width:1" />
<line x1="33" y1="216" x2="36" y2="216" style="stroke:black;stroke-width:1" />
<line x1="31" y1="214" x2="33" y2="216" style="stroke:black;stroke-width:1" />
<line x1="20" y1="197" x2="31" y2="214" style="stroke:black;stroke-width:1" />
<line x1="19" y1="194" x2="20" y2="197" style="stroke:black;stroke-width:1" />
<line x1="20" y1="192" x2="19" y2="194" style="stroke:black;stroke-width:1" />
<line x1="22" y1="190" x2="20" y2="192" style="stroke:black;stroke-width:1" />
<line x1="25" y1="190" x2="22" y2="190" style="stroke:black;stroke-width:1" />
<line x1="177" y1="76" x2="176" y2="78" style="stroke:black;stroke-width:1" />
<line x1="172" y1="80" x2="176" y2="78" style="stroke:black;stroke-width:1" />
<line x1="177" y1="76" x2="190" y2="96" style="stroke:black;stroke-width:1" />
<line x1="172" y1="80" x2="171" y2="83" style="stroke:black;stroke-width:1" />
<line x1="171" y1="80" x2="172" y2="80" style="stroke:black;stroke-width:1" />
<line x1="171" y1="78" x2="171" y2="80" style="stroke:black;stroke-width:1" />
<line x1="172" y1="80" x2="171" y2="78" style="stroke:black;stroke-width:1" />
<line x1="189" y1="98" x2="190" y2="96" style="stroke:black;stroke-width:1" />
<line x1="176" y1="78" x2="189" y2="98" style="stroke:black;stroke-width:1" />
<line x1="173" y1="76" x2="176" y2="78" style="stroke:black;stroke-width:1" />
<line x1="177" y1="76" x2="173" y2="76" style="stroke:black;stroke-width:1" />
<line x1="185" y1="100" x2="183" y2="100" style="stroke:black;stroke-width:1" />
<line x1="185" y1="102" x2="185" y2="100" style="stroke:black;stroke-width:1" />
<line x1="187" y1="102" x2="185" y2="102" style="stroke:black;stroke-width:1" />
<line x1="185" y1="100" x2="187" y2="102" style="stroke:black;stroke-width:1" />
<line x1="189" y1="98" x2="185" y2="100" style="stroke:black;stroke-width:1" />
<line x1="189" y1="101" x2="189" y2="98" style="stroke:black;stroke-width:1" />
<line x1="190" y1="99" x2="189" y2="101" style="stroke:black;stroke-width:1" />
<line x1="189" y1="98" x2="190" y2="99" style="stroke:black;stroke-width:1" />
<line x1="185" y1="100" x2="189" y2="98" style="stroke:black;stroke-width:1" />
<line x1="172" y1="80" x2="185" y2="100" style="stroke:black;stroke-width:1" />
<line x1="190" y1="99" x2="190" y2="96" style="stroke:black;stroke-width:1" />
<line x1="189" y1="101" x2="190" y2="99" style="stroke:black;stroke-width:1" />
<line x1="187" y1="102" x2="189" y2="101" style="stroke:black;stroke-width:1" />
<line x1="185" y1="102" x2="187" y2="102" style="stroke:black;stroke-width:1" />
<line x1="183" y1="100" x2="185" y2="102" style="stroke:black;stroke-width:1" />
<line x1="171" y1="83" x2="183" y2="100" style="stroke:black;stroke-width:1" />
<line x1="171" y1="80" x2="171" y2="83" style="stroke:black;stroke-width:1" />
<line x1="171" y1="78" x2="171" y2="80" style="stroke:black;stroke-width:1" />
<line x1="173" y1="76" x2="171" y2="78" style="stroke:black;stroke-width:1" />
<line x1="177" y1="76" x2="173" y2="76" style="stroke:black;stroke-width:1" />
<line x1="194" y1="96" x2="199" y2="91" style="stroke:black;stroke-width:1" />
<line x1="182" y1="104" x2="194" y2="96" style="stroke:black;stroke-width:1" />
<line x1="168" y1="115" x2="182" y2="104" style="stroke:black;stroke-width:1" />
<line x1="150" y1="129" x2="168" y2="115" style="stroke:black;stroke-width:1" />
<line x1="132" y1="142" x2="150" y2="129" style="stroke:black;stroke-width:1" />
<line x1="114" y1="155" x2="132" y2="142" style="stroke:black;stroke-width:1" />
<line x1="95" y1="169" x2="114" y2="155" style="stroke:black;stroke-width:1" />
<line x1="76" y1="183" x2="95" y2="169" style="stroke:black;stroke-width:1" />
<line x1="57" y1="198" x2="76" y2="183" style="stroke:black;stroke-width:1" />
<line x1="41" y1="210" x2="57" y2="198" style="stroke:black;stroke-width:1" />
<line x1="29" y1="219" x2="41" y2="210" style="stroke:black;stroke-width:1" />
<line x1="22" y1="224" x2="29" y2="219" style="stroke:black;stroke-width:1" />
<line x1="177" y1="108" x2="176" y2="80" style="stroke:black;stroke-width:1" />
<line x1="146" y1="102" x2="177" y2="108" style="stroke:black;stroke-width:1" />
<line x1="141" y1="135" x2="146" y2="102" style="stroke:black;stroke-width:1" />
<line x1="111" y1="129" x2="141" y2="135" style="stroke:black;stroke-width:1" />
<line x1="104" y1="163" x2="111" y2="129" style="stroke:black;stroke-width:1" />
<line x1="74" y1="157" x2="104" y2="163" style="stroke:black;stroke-width:1" />
<line x1="67" y1="191" x2="74" y2="157" style="stroke:black;stroke-width:1" />
<line x1="36" y1="185" x2="67" y2="191" style="stroke:black;stroke-width:1" />
<line x1="35" y1="214" x2="36" y2="185" style="stroke:black;stroke-width:1" />
<line x1="23" y1="195" x2="35" y2="214" style="stroke:black;stroke-width:1" />
<line x1="48" y1="205" x2="23" y2="195" style="stroke:black;stroke-width:1" />
<line x1="54" y1="171" x2="48" y2="205" style="stroke:black;stroke-width:1" />
<line x1="86" y1="176" x2="54" y2="171" style="stroke:black;stroke-width:1" />
<line x1="92" y1="143" x2="86" y2="176" style="stroke:black;stroke-width:1" />
<line x1="124" y1="148" x2="92" y2="143" style="stroke:black;stroke-width:1" />
<line x1="128" y1="116" x2="124" y2="148" style="stroke:black;stroke-width:1" />
<line x1="159" y1="122" x2="128" y2="116" style="stroke:black;stroke-width:1" />
<line x1="164" y1="89" x2="159" y2="122" style="stroke:black;stroke-width:1" />
<line x1="188" y1="100" x2="164" y2="89" style="stroke:black;stroke-width:1" />
<line x1="176" y1="80" x2="188" y2="100" style="stroke:black;stroke-width:1" />
<line x1="181" y1="76" x2="181" y2="76" style="stroke:black;stroke-width:1" />
<line x1="170" y1="85" x2="170" y2="85" style="stroke:black;stroke-width:1" />
<line x1="155" y1="96" x2="155" y2="96" style="stroke:black;stroke-width:1" />
<line x1="137" y1="109" x2="137" y2="109" style="stroke:black;stroke-width:1" />
<line x1="120" y1="122" x2="120" y2="122" style="stroke:black;stroke-width:1" />
<line x1="101" y1="136" x2="101" y2="136" style="stroke:black;stroke-width:1" />
<line x1="83" y1="150" x2="83" y2="150" style="stroke:black;stroke-width:1" />
<line x1="64" y1="164" x2="64" y2="164" style="stroke:black;stroke-width:1" />
<line x1="44" y1="179" x2="44" y2="179" style="stroke:black;stroke-width:1" />
<line x1="29" y1="190" x2="29" y2="190" style="stroke:black;stroke-width:1" />
<line x1="16" y1="200" x2="16" y2="200" style="stroke:black;stroke-width:1" />
<line x1="23" y1="195" x2="23" y2="195" style="stroke:black;stroke-width:1" />
<line x1="36" y1="185" x2="36" y2="185" style="stroke:black;stroke-width:1" />
<line x1="54" y1="171" x2="54" y2="171" style="stroke:black;stroke-width:1" />
<line x1="74" y1="157" x2="74" y2="157" style="stroke:black;stroke-width:1" />
<line x1="92" y1="143" x2="92" y2="143" style="stroke:black;stroke-width:1" />
<line x1="111" y1="129" x2="111" y2="129" style="stroke:black;stroke-width:1" />
<line x1="128" y1="116" x2="128" y2="116" style="stroke:black;stroke-width:1" />
<line x1="146" y1="102" x2="146" y2="102" style="stroke:black;stroke-width:1" />
<line x1="164" y1="89" x2="164" y2="89" style="stroke:black;stroke-width:1" />
<line x1="176" y1="80" x2="175" y2="80" style="stroke:black;stroke-width:1" />
<line x1="16" y1="200" x2="10" y2="205" style="stroke:black;stroke-width:1" />
<line x1="23" y1="195" x2="16" y2="200" style="stroke:black;stroke-width:1" />
<line x1="29" y1="190" x2="23" y2="195" style="stroke:black;stroke-width:1" />
<line x1="36" y1="185" x2="29" y2="190" style="stroke:black;stroke-width:1" />
<line x1="44" y1="179" x2="36" y2="185" style="stroke:black;stroke-width:1" />
<line x1="54" y1="171" x2="44" y2="179" style="stroke:black;stroke-width:1" />
<line x1="64" y1="164" x2="54" y2="171" style="stroke:black;stroke-width:1" />
<line x1="74" y1="157" x2="64" y2="164" style="stroke:black;stroke-width:1" />
<line x1="83" y1="150" x2="74" y2="157" style="stroke:black;stroke-width:1" />
<line x1="92" y1="143" x2="83" y2="150" style="stroke:black;stroke-width:1" />
<line x1="101" y1="136" x2="92" y2="143" style="stroke:black;stroke-width:1" />
<line x1="111" y1="129" x2="101" y2="136" style="stroke:black;stroke-width:1" />
<line x1="120" y1="122" x2="111" y2="129" style="stroke:black;stroke-width:1" />
<line x1="128" y1="116" x2="120" y2="122" style="stroke:black;stroke-width:1" />
<line x1="137" y1="109" x2="128" y2="116" style="stroke:black;stroke-width:1" />
<line x1="146" y1="102" x2="137" y2="109" style="stroke:black;stroke-width:1" />
<line x1="155" y1="96" x2="146" y2="102" style="stroke:black;stroke-width:1" />
<line x1="164" y1="89" x2="155" y2="96" style="stroke:black;stroke-width:1" />
<line x1="170" y1="85" x2="164" y2="89" style="stroke:black;stroke-width:1" />
<line x1="175" y1="80" x2="170" y2="85" style="stroke:black;stroke-width:1" />
<line x1="181" y1="76" x2="175" y2="80" style="stroke:black;stroke-width:1" />
<line x1="187" y1="72" x2="181" y2="76" style="stroke:black;stroke-width:1" />
<line x1="187" y1="72" x2="187" y2="72" style="stroke:black;stroke-width:1" />
<line x1="181" y1="76" x2="187" y2="72" style="stroke:black;stroke-width:1" />
<line x1="175" y1="80" x2="181" y2="76" style="stroke:black;stroke-width:1" />
<line x1="170" y1="85" x2="175" y2="80" style="stroke:black;stroke-width:1" />
<line x1="164" y1="89" x2="170" y2="85" style="stroke:black;stroke-width:1" />
<line x1="155" y1="96" x2="164" y2="89" style="stroke:black;stroke-width:1" />
<line x1="146" y1="102" x2="155" y2="96" style="stroke:black;stroke-width:1" />
<line x1="137" y1="109" x2="146" y2="102" style="stroke:black;stroke-width:1" />
<line x1="128" y1="116" x2="137" y2="109" style="stroke:black;stroke-width:1" />
<line x1="120" y1="122" x2="128" y2="116" style="stroke:black;stroke-width:1" />
<line x1="111" y1="129" x2="120" y2="122" style="stroke:black;stroke-width:1" />
<line x1="101" y1="136" x2="111" y2="129" style="stroke:black;stroke-width:1" />
<line x1="92" y1="143" x2="101" y2="136" style="stroke:black;stroke-width:1" />
<line x1="83" y1="150" x2="92" y2="143" style="stroke:black;stroke-width:1" />
<line x1="74" y1="157" x2="83" y2="150" style="stroke:black;stroke-width:1" />
<line x1="64" y1="164" x2="74" y2="157" style="stroke:black;stroke-width:1" />
<line x1="54" y1="171" x2="64" y2="164" style="stroke:black;stroke-width:1" />
<line x1="44" y1="179" x2="54" y2="171" style="stroke:black;stroke-width:1" />
<line x1="36" y1="185" x2="44" y2="179" style="stroke:black;stroke-width:1" />
<line x1="29" y1="190" x2="36" y2="185" style="stroke:black;stroke-width:1" />
<line x1="23" y1="195" x2="29" y2="190" style="stroke:black;stroke-width:1" />
<line x1="16" y1="200" x2="23" y2="195" style="stroke:black;stroke-width:1" />
<line x1="10" y1="205" x2="16" y2="200" style="stroke:black;stroke-width:1" />
<line x1="10" y1="205" x2="10" y2="205" style="stroke:black;stroke-width:1" />
<line x1="23" y1="195" x2="10" y2="205" style="stroke:black;stroke-width:1" />
<line x1="36" y1="185" x2="23" y2="195" style="stroke:black;stroke-width:1" />
<line x1="54" y1="171" x2="36" y2="185" style="stroke:black;stroke-width:1" />
<line x1="74" y1="157" x2="54" y2="171" style="stroke:black;stroke-width:1" />
<line x1="92" y1="143" x2="74" y2="157" style="stroke:black;stroke-width:1" />
<line x1="111" y1="129" x2="92" y2="143" style="stroke:black;stroke-width:1" />
<line x1="128" y1="116" x2="111" y2="129" style="stroke:black;stroke-width:1" />
<line x1="146" y1="102" x2="128" y2="116" style="stroke:black;stroke-width:1" />
<line x1="164" y1="89" x2="146" y2="102" style="stroke:black;stroke-width:1" />
<line x1="176" y1="80" x2="164" y2="89" style="stroke:black;stroke-width:1" />
<line x1="187" y1="72" x2="176" y2="80" style="stroke:black;stroke-width:1" />
<line x1="194" y1="96" x2="193" y2="96" style="stroke:black;stroke-width:1" />
<line x1="182" y1="104" x2="182" y2="104" style="stroke:black;stroke-width:1" />
<line x1="168" y1="115" x2="168" y2="115" style="stroke:black;stroke-width:1" />
<line x1="150" y1="129" x2="150" y2="129" style="stroke:black;stroke-width:1" />
<line x1="132" y1="142" x2="132" y2="142" style="stroke:black;stroke-width:1" />
<line x1="114" y1="155" x2="114" y2="155" style="stroke:black;stroke-width:1" />
<line x1="95" y1="169" x2="95" y2="170" style="stroke:black;stroke-width:1" />
<line x1="76" y1="183" x2="76" y2="183" style="stroke:black;stroke-width:1" />
<line x1="57" y1="198" x2="57" y2="198" style="stroke:black;stroke-width:1" />
<line x1="41" y1="210" x2="41" y2="210" style="stroke:black;stroke-width:1" />
<line x1="29" y1="219" x2="29" y2="219" style="stroke:black;stroke-width:1" />
<line x1="35" y1="214" x2="35" y2="214" style="stroke:black;stroke-width:1" />
<line x1="48" y1="205" x2="48" y2="205" style="stroke:black;stroke-width:1" />
<line x1="67" y1="191" x2="67" y2="191" style="stroke:black;stroke-width:1" />
<line x1="86" y1="176" x2="86" y2="176" style="stroke:black;stroke-width:1" />
<line x1="104" y1="163" x2="104" y2="163" style="stroke:black;stroke-width:1" />
<line x1="124" y1="148" x2="124" y2="148" style="stroke:black;stroke-width:1" />
<line x1="141" y1="135" x2="141" y2="135" style="stroke:black;stroke-width:1" />
<line x1="159" y1="122" x2="159" y2="122" style="stroke:black;stroke-width:1" />
<line x1="177" y1="108" x2="177" y2="108" style="stroke:black;stroke-width:1" />
<line x1="188" y1="100" x2="188" y2="100" style="stroke:black;stroke-width:1" />
<line x1="29" y1="219" x2="22" y2="224" style="stroke:black;stroke-width:1" />
<line x1="35" y1="214" x2="29" y2="219" style="stroke:black;stroke-width:1" />
<line x1="41" y1="210" x2="35" y2="214" style="stroke:black;stroke-width:1" />
<line x1="48" y1="205" x2="41" y2="210" style="stroke:black;stroke-width:1" />
<line x1="57" y1="198" x2="48" y2="205" style="stroke:black;stroke-width:1" />
<line x1="67" y1="191" x2="57" y2="198" style="stroke:black;stroke-width:1" />
<line x1="76" y1="183" x2="67" y2="191" style="stroke:black;stroke-width:1" />
<line x1="86" y1="176" x2="76" y2="183" style="stroke:black;stroke-width:1" />
<line x1="95" y1="169" x2="86" y2="176" style="stroke:black;stroke-width:1" />
<line x1="104" y1="163" x2="95" y2="169" style="stroke:black;stroke-width:1" />
<line x1="114" y1="155" x2="104" y2="163" style="stroke:black;stroke-width:1" />
<line x1="124" y1="148" x2="114" y2="155" style="stroke:black;stroke-width:1" />
<line x1="132" y1="142" x2="124" y2="148" style="stroke:black;stroke-width:1" />
<line x1="141" y1="135" x2="132" y2="142" style="stroke:black;stroke-width:1" />
<line x1="150" y1="129" x2="141" y2="135" style="stroke:black;stroke-width:1" />
<line x1="159" y1="122" x2="150" y2="129" style="stroke:black;stroke-width:1" />
<line x1="168" y1="115" x2="159" y2="122" style="stroke:black;stroke-width:1" />
<line x1="177" y1="108" x2="168" y2="115" style="stroke:black;stroke-width:1" />
<line x1="182" y1="104" x2="177" y2="108" style="stroke:black;stroke-width:1" />
<line x1="188" y1="100" x2="182" y2="104" style="stroke:black;stroke-width:1" />
<line x1="194" y1="96" x2="188" y2="100" style="stroke:black;stroke-width:1" />
<line x1="200" y1="91" x2="194" y2="96" style="stroke:black;stroke-width:1" />
<line x1="199" y1="91" x2="200" y2="91" style="stroke:black;stroke-width:1" />
<line x1="193" y1="96" x2="200" y2="91" style="stroke:black;stroke-width:1" />
<line x1="188" y1="100" x2="193" y2="96" style="stroke:black;stroke-width:1" />
<line x1="182" y1="104" x2="188" y2="100" style="stroke:black;stroke-width:1" />
<line x1="177" y1="108" x2="182" y2="104" style="stroke:black;stroke-width:1" />
<line x1="168" y1="115" x2="177" y2="108" style="stroke:black;stroke-width:1" />
<line x1="159" y1="122" x2="168" y2="115" style="stroke:black;stroke-width:1" />
<line x1="150" y1="129" x2="159" y2="122" style="stroke:black;stroke-width:1" />
<line x1="141" y1="135" x2="150" y2="129" style="stroke:black;stroke-width:1" />
<line x1="132" y1="142" x2="141" y2="135" style="stroke:black;stroke-width:1" />
<line x1="124" y1="148" x2="132" y2="142" style="stroke:black;stroke-width:1" />
<line x1="114" y1="155" x2="124" y2="148" style="stroke:black;stroke-width:1" />
<line x1="104" y1="163" x2="114" y2="155" style="stroke:black;stroke-width:1" />
<line x1="95" y1="170" x2="104" y2="163" style="stroke:black;stroke-width:1" />
<line x1="86" y1="176" x2="95" y2="170" style="stroke:black;stroke-width:1" />
<line x1="76" y1="183" x2="86" y2="176" style="stroke:black;stroke-width:1" />
<line x1="67" y1="191" x2="76" y2="183" style="stroke:black;stroke-width:1" />
<line x1="57" y1="198" x2="67" y2="191" style="stroke:black;stroke-width:1" />
<line x1="48" y1="205" x2="57" y2="198" style="stroke:black;stroke-width:1" />
<line x1="35" y1="214" x2="48" y2="205" style="stroke:black;stroke-width:1" />
<line x1="29" y1="219" x2="35" y2="214" style="stroke:black;stroke-width:1" />
<line x1="22" y1="224" x2="29" y2="219" style="stroke:black;stroke-width:1" />
<line x1="22" y1="224" x2="22" y2="224" style="stroke:black;stroke-width:1" />
<line x1="35" y1="214" x2="22" y2="224" style="stroke:black;stroke-width:1" />
<line x1="48" y1="205" x2="35" y2="214" style="stroke:black;stroke-width:1" />
<line x1="67" y1="191" x2="48" y2="205" style="stroke:black;stroke-width:1" />
<line x1="86" y1="176" x2="67" y2="191" style="stroke:black;stroke-width:1" />
<line x1="104" y1="163" x2="86" y2="176" style="stroke:black;stroke-width:1" />
<line x1="124" y1="148" x2="104" y2="163" style="stroke:black;stroke-width:1" />
<line x1="141" y1="135" x2="124" y2="148" style="stroke:black;stroke-width:1" />
<line x1="159" y1="122" x2="141" y2="135" style="stroke:black;stroke-width:1" />
<line x1="177" y1="108" x2="159" y2="122" style="stroke:black;stroke-width:1" />
<line x1="188" y1="100" x2="177" y2="108" style="stroke:black;stroke-width:1" />
<line x1="199" y1="91" x2="188" y2="100" style="stroke:black;stroke-width:1" />
</svg>
